<svg xmlns="http://www.w3.org/2000/svg" id="Layer_1" viewBox="0 0 448 448"><path d="M224 170.66c-29.46.01-53.33 23.9-53.32 53.36s23.9 53.33 53.36 53.32c29.45-.01 53.32-23.89 53.32-53.34-.02-29.46-23.9-53.33-53.36-53.34m124.71-41a54 54 0 0 0-30.41-30.41c-21-8.29-71-6.43-94.3-6.43s-73.25-1.93-94.31 6.43a54 54 0 0 0-30.41 30.41c-8.28 21-6.43 71.05-6.43 94.33s-1.85 73.27 6.47 94.34a54 54 0 0 0 30.41 30.41c21 8.29 71 6.43 94.31 6.43s73.24 1.93 94.3-6.43a54 54 0 0 0 30.41-30.41c8.35-21 6.43-71.05 6.43-94.33s1.92-73.26-6.43-94.33h-.04ZM224 306c-45.29 0-82-36.71-82-82s36.71-82 82-82 82 36.71 82 82c.06 45.23-36.57 81.94-81.8 82Zm85.38-148.3c-10.57 0-19.14-8.56-19.15-19.13s8.56-19.14 19.13-19.15c10.57 0 19.14 8.56 19.15 19.13.04 10.56-8.47 19.15-19.02 19.19h-.07ZM400 0H48C21.49 0 0 21.49 0 48v352c0 26.51 21.49 48 48 48h352c26.51 0 48-21.49 48-48V48c0-26.51-21.49-48-48-48m-17.12 290c-1.29 25.63-7.14 48.34-25.85 67s-41.4 24.63-67 25.85c-26.41 1.49-105.59 1.49-132 0-25.63-1.29-48.26-7.15-67-25.85s-24.63-41.42-25.85-67c-1.49-26.42-1.49-105.61 0-132 1.29-25.63 7.07-48.34 25.85-67s41.47-24.56 67-25.78c26.41-1.49 105.59-1.49 132 0 25.63 1.29 48.33 7.15 67 25.85s24.63 41.42 25.85 67.05c1.49 26.32 1.49 105.44 0 131.88"/></svg>